<?xml version="1.0" encoding="UTF-8" standalone="no"?><!-- Created with Inkscape (http://www.inkscape.org/) --><svg xmlns="http://www.w3.org/2000/svg" xmlns:svg="http://www.w3.org/2000/svg" version="1.2" width="800" height="800" viewBox="0 0 800 800" baseProfile="tiny-ps"><title>Hacklab Finland ry</title><defs id="defs1"/><g id="g1"><g id="g23" transform="translate(3,-9)"><path d="M 419.7681,683.25 419.5,659.5 408.25,659.21725 397,658.9345 V 674.46725 690 H 368.5 340 V 661.5 633 h -12 -12 v 18 18 H 292.5 269 v 18.5 18.5 h -9.5 -9.5 v -24 -24 h -19 -19 v 13 13 H 197.5 183 V 671 658 H 164 145 V 638.5 619 h 10 10 V 602.5 586 H 128.5 92 V 561.5 537 h 37 37 v -19 -19 h 8.5 8.5 V 486 473 H 145 107 V 450 427 H 129.5 152 V 398.5 370 h 10.52673 10.52674 L 172.77673,355.25 172.5,340.5 140.75,340.23595 109,339.97191 V 315.98595 292 h 22 22 V 275.5 259 H 169.5 186 V 247 235 H 145.5 105 V 224.5 214 h 45 45 V 183.5 153 h 25.5 25.5 v 17 17 h 18 18 V 154.5 122 H 307.5 333 V 110 98 h 10.5 10.5 v 34.5 34.5 h 28.5 28.5 v -19 -19 h 28 28 V 153.5 178 H 492.5 518 V 160.5 143 h 16 16 v -19 -19 h 11.5 11.5 v 33.5 33.5 h 23.5 23.5 v 26.5 26.5 h 11 11 v 8.5 8.5 h 24 24 v 20 20 h -19 -19 v 29 29 h -16 -16 v 15 15 H 657.5 695 V 398.5 427 H 678.5 662 v 20 20 H 644.5 627 v 17.5 17.5 h 38 38 v 21 21 H 684.03383 665.06766 L 664.78383,554.75 664.5,565.5 646.75,565.77307 629,566.04615 V 576.52307 587 h 16 16 V 607.5 628 H 648.5 636 V 642.5 657 H 620.5 605 v 11 11 h -7 -7 V 663.5 648 H 575.5 560 v 28 28 h -21 -21 v -17.02029 -17.02029 l -20.75,0.27029 -20.75,0.27029 -0.29044,8.25 -0.29044,8.25 H 463.95956 452 v 10 10 H 436.0181 420.0362 Z M 256.06658,562.84726 c 11.58217,-5.34453 17.10669,-14.87418 17.12384,-29.53815 0.0134,-11.44316 -2.15333,-17.40245 -8.71186,-23.96098 -6.40707,-6.40708 -13.0872,-8.74608 -24.97856,-8.74608 -11.93593,0 -18.56604,2.33355 -25.04868,8.81619 C 208.10929,515.76028 206,521.64583 206,533 c 0,10.18143 2.05135,16.6407 7.10987,22.38748 7.10181,8.06808 14.25304,10.71134 27.89013,10.30884 7.69915,-0.22724 10.55522,-0.76732 15.06658,-2.84906 z M 394,476 v -85 h 22 22 V 368.5 346 h -22.14981 -22.14981 l 0.58542,-10.75 c 0.845,-15.51637 3.62017,-21.96457 11.2142,-26.05656 5.63874,-3.03839 23.51436,-1.37652 35.67537,3.3167 1.42062,0.54825 2.68552,-2.49726 8.31861,-20.02879 3.65378,-11.37144 6.8736,-21.27567 7.15516,-22.0094 0.35859,-0.93448 -1.85563,-2.08197 -7.39253,-3.83107 -24.21707,-7.65017 -52.67417,-8.50928 -74.30771,-2.24332 -19.50506,5.64947 -31.4076,18.54316 -37.0197,40.10244 -1.53783,5.90765 -2.22989,12.47038 -2.64607,25.0923 l -0.56357,17.0923 -15.85978,7.57454 L 303,361.83367 V 376.41684 391 h 16 16 v 85 85 H 364.5 394 Z M 537,453.5 V 346 H 507 477 V 453.5 561 h 30 30 z M 524,317.35515 c 9.53643,-4.36834 14.12299,-11.80638 14.79192,-23.98806 0.58306,-10.61815 -1.47493,-17.10273 -7.2656,-22.89341 -5.76764,-5.76763 -12.34272,-7.88017 -24.52632,-7.88017 -21.66349,0 -32.0882,9.57062 -31.95611,29.33799 0.0927,13.87761 6.18788,22.73842 18.37184,26.70806 6.41481,2.09001 24.91364,1.31313 30.58427,-1.28441 z" id="path30" fill="#fdfdfd"/><path d="m 249.43244,682 c 0,-13.475 0.14155,-18.9875 0.31456,-12.25 0.17301,6.7375 0.17301,17.7625 0,24.5 -0.17301,6.7375 -0.31456,1.225 -0.31456,-12.25 z M 528.25,704.25379 c 5.9125,-0.1768 15.5875,-0.1768 21.5,0 5.9125,0.17679 1.075,0.32145 -10.75,0.32145 -11.825,0 -16.6625,-0.14466 -10.75,-0.32145 z m -173.93883,-14.002 c 8.14615,-0.16828 21.19615,-0.16789 29,8.6e-4 7.80386,0.16876 1.13883,0.30644 -14.81117,0.30596 -15.95,-4.7e-4 -22.33497,-0.13854 -14.18883,-0.30682 z M 476.34941,679 c 0,-4.675 0.17226,-6.5875 0.3828,-4.25 0.21053,2.3375 0.21053,6.1625 0,8.5 -0.21054,2.3375 -0.3828,0.425 -0.3828,-4.25 z M 594.25,679.27153 c 2.0625,-0.21574 5.4375,-0.21574 7.5,0 2.0625,0.21575 0.375,0.39226 -3.75,0.39226 -4.125,0 -5.8125,-0.17651 -3.75,-0.39226 z M 280.80735,669.25254 c 6.76904,-0.17326 17.56904,-0.17273 24,0.001 6.43096,0.17391 0.89265,0.31567 -12.30735,0.31502 -13.2,-6.6e-4 -18.46169,-0.14295 -11.69265,-0.31621 z M 402.25,659.26101 c 3.1625,-0.19845 8.3375,-0.19845 11.5,0 3.1625,0.19845 0.575,0.36082 -5.75,0.36082 -6.325,0 -8.9125,-0.16237 -5.75,-0.36082 z m -80.5,-26.00141 c 3.4375,-0.19527 9.0625,-0.19527 12.5,0 3.4375,0.19527 0.625,0.35504 -6.25,0.35504 -6.875,0 -9.6875,-0.15977 -6.25,-0.35504 z M 661.42328,607.5 c 8.2e-4,-11.55 0.14638,-16.13804 0.32348,-10.19565 0.17711,5.94239 0.17644,15.39239 -10e-4,21 -0.17792,5.60761 -0.32282,0.74565 -0.322,-10.80435 z M 674.25,544.2545 c 5.3625,-0.17981 14.1375,-0.17981 19.5,0 5.3625,0.17981 0.975,0.32692 -9.75,0.32692 -10.725,0 -15.1125,-0.14711 -9.75,-0.32692 z M 273.07895,533.41667 c 0.048,-1.16495 0.28494,-1.4019 0.60416,-0.60417 0.28887,0.72187 0.25335,1.58438 -0.0789,1.91667 -0.33229,0.33229 -0.56864,-0.25834 -0.52522,-1.3125 z M 645.75,501.25131 c 10.5875,-0.16197 27.9125,-0.16197 38.5,0 10.5875,0.16197 1.925,0.2945 -19.25,0.2945 -21.175,0 -29.8375,-0.13253 -19.25,-0.2945 z M 151.44139,398.5 c 4.7e-4,-15.95 0.13854,-22.33497 0.30682,-14.18883 0.16828,8.14615 0.16789,21.19615 -8.6e-4,29 -0.16876,7.80386 -0.30644,1.13883 -0.30596,-14.81117 z m 544,0 c 4.7e-4,-15.95 0.13854,-22.33497 0.30682,-14.18883 0.16828,8.14615 0.16789,21.19615 -8.6e-4,29 -0.16876,7.80386 -0.30644,1.13883 -0.30596,-14.81117 z m -523.04145,-43 c 0.001,-8.25 0.15629,-11.49193 0.34419,-7.20429 0.1879,4.28763 0.18676,11.03763 -0.003,15 -0.1893,3.96236 -0.34304,0.45429 -0.34164,-7.79571 z M 108.47276,315.75051 108.5,291.5 l 22.25059,-0.0294 22.25059,-0.0294 -21.98286,0.29845 -21.98285,0.29845 -0.29497,23.98142 -0.29497,23.98142 z M 185.38536,247 c 0,-6.875 0.15977,-9.6875 0.35504,-6.25 0.19527,3.4375 0.19527,9.0625 0,12.5 -0.19527,3.4375 -0.35504,0.625 -0.35504,-6.25 z m 456.9696,-13.5 c -0.003,-4.95 0.16605,-7.10108 0.37577,-4.78017 0.20972,2.3209 0.21222,6.3709 0.006,9 -0.20667,2.62909 -0.37827,0.73017 -0.38131,-4.21983 z m -447.91032,-50 c -4.2e-4,-17.05 0.13593,-24.16558 0.30301,-15.81241 0.16707,8.35318 0.16742,22.30318 7.7e-4,31 -0.16665,8.69683 -0.30335,1.86241 -0.30378,-15.18759 z M 246.41127,170 c 0,-9.625 0.14998,-13.5625 0.3333,-8.75 0.18331,4.8125 0.18331,12.6875 0,17.5 -0.18332,4.8125 -0.3333,0.875 -0.3333,-8.75 z M 467,153.51557 v -24.48442 l -28.25,-0.28179 -28.25,-0.28178 28.75,-0.23379 L 468,128 v 25 c 0,13.75 -0.225,25 -0.5,25 -0.275,0 -0.5,-11.01799 -0.5,-24.48443 z m 117.80735,17.73697 c 6.76904,-0.17326 17.56904,-0.17273 24,10e-4 6.43096,0.17391 0.89265,0.31567 -12.30735,0.31502 -13.2,-6.6e-4 -18.46169,-0.14295 -11.69265,-0.31621 z M 354.45018,132.5 c 3.4e-4,-19.25 0.13469,-26.98347 0.29856,-17.1855 0.16386,9.79798 0.16358,25.54798 -6.2e-4,35 -0.16421,9.45203 -0.29828,1.4355 -0.29794,-17.8145 z M 287.25,121.26101 c 3.1625,-0.19845 8.3375,-0.19845 11.5,0 3.1625,0.19845 0.575,0.36082 -5.75,0.36082 -6.325,0 -8.9125,-0.16237 -5.75,-0.36082 z" id="path29" fill="#cff0ec"/><path d="m 536.48226,454 c 0,-59.125 0.1204,-83.3125 0.26756,-53.75 0.14715,29.5625 0.14715,77.9375 0,107.5 -0.14716,29.5625 -0.26756,5.375 -0.26756,-53.75 z m -59.00008,-0.5 c 4e-5,-58.85 0.1205,-82.77802 0.26767,-53.17338 0.14718,29.60465 0.14715,77.75465 -8e-5,107 -0.14722,29.24536 -0.26764,5.02338 -0.26759,-53.82662 z M 237.75,500.29427 c 1.2375,-0.23836 3.2625,-0.23836 4.5,0 1.2375,0.23835 0.225,0.43337 -2.25,0.43337 -2.475,0 -3.4875,-0.19502 -2.25,-0.43337 z m 97.32895,-177.8776 c 0.048,-1.16495 0.28494,-1.4019 0.60416,-0.60417 0.28887,0.72187 0.25335,1.58438 -0.0789,1.91667 -0.33229,0.33229 -0.56864,-0.25834 -0.52522,-1.3125 z M 531.40499,270.75 529.5,268.5 l 2.25,1.90499 c 1.2375,1.04774 2.25,2.06024 2.25,2.25 0,0.80025 -0.80479,0.20945 -2.59501,-1.90499 z M 504.75,262.29427 c 1.2375,-0.23836 3.2625,-0.23836 4.5,0 1.2375,0.23835 0.225,0.43337 -2.25,0.43337 -2.475,0 -3.4875,-0.19502 -2.25,-0.43337 z m -105.48097,-1.98726 c 0.97297,-0.25354 2.32297,-0.23687 3,0.0371 0.67703,0.27393 -0.11903,0.48137 -1.76903,0.46099 -1.65,-0.0204 -2.20394,-0.2445 -1.23097,-0.49804 z m 11.98097,0.004 c 0.9625,-0.25152 2.5375,-0.25152 3.5,0 0.9625,0.25153 0.175,0.45733 -1.75,0.45733 -1.925,0 -2.7125,-0.2058 -1.75,-0.45733 z" id="path28" fill="#cccccc"/><path d="m 419.23102,683.77418 0.23101,-24.27418 0.28709,23.75 0.28708,23.75 h 15.94692 15.94691 l 0.33743,-9.75 0.33742,-9.75 -0.0524,10 -0.0524,10 -16.75,0.27418 -16.75,0.27418 z M 269.41508,688 c 0,-10.175 0.1485,-14.3375 0.32999,-9.25 0.18149,5.0875 0.18149,13.4125 0,18.5 -0.18149,5.0875 -0.32999,0.925 -0.32999,-9.25 z m -72.19476,-3.73361 14.72032,-0.31952 0.27968,-12.72343 L 212.5,658.5 l 18,-0.0338 18,-0.0338 -17.72029,0.30628 -17.72029,0.30628 -0.27971,12.72755 L 212.5,684.5 l -15,0.043 -15,0.043 z M 605.38176,668.5 c 0.002,-6.6 0.16382,-9.16987 0.35965,-5.71081 0.19583,3.45905 0.19422,8.85905 -0.004,12 -0.19781,3.14094 -0.35803,0.31081 -0.35606,-6.28919 z M 486.75,670.25412 c 5.6375,-0.17825 14.8625,-0.17825 20.5,0 5.6375,0.17825 1.025,0.32409 -10.25,0.32409 -11.275,0 -15.8875,-0.14584 -10.25,-0.32409 z M 154.25,658.2545 c 5.3625,-0.17981 14.1375,-0.17981 19.5,0 5.3625,0.17981 0.975,0.32692 -9.75,0.32692 -10.725,0 -15.1125,-0.14711 -9.75,-0.32692 z M 636.39994,642.5 c 10e-4,-8.25 0.15629,-11.49193 0.34419,-7.20429 0.1879,4.28763 0.18676,11.03763 -0.003,15 -0.1893,3.96236 -0.34304,0.45429 -0.34164,-7.79571 z M 164.22194,603.25 164,587 H 127.5 91 l 0.231712,-25.25 0.231713,-25.25 0.285757,24.75 0.285757,24.75 h 36.013911 c 28.51285,0 36.11718,0.2691 36.5097,1.29199 0.27268,0.71059 0.35843,8.24809 0.19055,16.75 L 164.44388,619.5 Z m 465.20683,-17.57502 c -0.27965,-0.72876 -0.35892,-5.56626 -0.17615,-10.75 l 0.3323,-9.42498 0.20754,10.22523 0.20754,10.22523 16.25,0.30133 16.25,0.30134 -16.28138,0.22344 c -12.75381,0.17502 -16.39155,-0.0636 -16.78985,-1.10159 z M 165.46761,517.5 l 0.0324,-19 8.25,-0.29044 8.25,-0.29044 V 485.97158 474.02405 L 144.25,473.76203 106.5,473.5 l -0.0283,-23.25054 -0.0283,-23.25055 0.29666,22.98854 0.29666,22.98854 37.7316,0.262 L 182.5,473.5 v 12.5 12.5 l -8.22855,0.2901 -8.22855,0.29009 -0.30383,18.70991 -0.30384,18.7099 z M 156.75,369.26276 c 2.8875,-0.202 7.6125,-0.202 10.5,0 2.8875,0.202 0.525,0.36728 -5.25,0.36728 -5.775,0 -8.1375,-0.16528 -5.25,-0.36728 z m 463.6882,-0.56321 c -0.27447,-0.71525 -0.37284,-7.35275 -0.21861,-14.75 L 620.5,340.5 l 15.73494,-0.27532 15.73493,-0.27531 0.28077,-29.22469 L 652.5314,281.5 652.7657,311.25 653,341 h -16 -16 v 13.98783 13.98783 l 37.25,0.27471 37.25,0.27472 -37.28138,0.23746 c -29.84428,0.19008 -37.38094,-0.022 -37.78042,-1.063 z M 123.75,340.25179 c 8.9375,-0.16573 23.5625,-0.16573 32.5,0 8.9375,0.16574 1.625,0.30134 -16.25,0.30134 -17.875,0 -25.1875,-0.1356 -16.25,-0.30134 z M 690.42179,262 c 0,-11.275 0.14584,-15.8875 0.32409,-10.25 0.17825,5.6375 0.17825,14.8625 0,20.5 -0.17825,5.6375 -0.32409,1.025 -0.32409,-10.25 z M 104.37407,224.5 c 0.002,-6.05 0.16696,-8.39607 0.36601,-5.21349 0.19905,3.18258 0.1972,8.13258 -0.004,11 -0.20131,2.86742 -0.36417,0.26349 -0.36191,-5.78651 z M 620.43869,198 c 0,-15.125 0.13899,-21.3125 0.30888,-13.75 0.16988,7.5625 0.16988,19.9375 0,27.5 -0.16989,7.5625 -0.30888,1.375 -0.30888,-13.75 z m -356.70251,-11.73599 17.23618,-0.31112 0.28526,-32.22644 0.28526,-32.22645 -0.0214,32.5 -0.0214,32.5 -17.5,0.0376 -17.5,0.0376 z M 480.25,177.25279 c 7.0125,-0.1719 18.4875,-0.1719 25.5,0 7.0125,0.1719 1.275,0.31255 -12.75,0.31255 -14.025,0 -19.7625,-0.14065 -12.75,-0.31255 z m -97.77193,-10.9944 27.47885,-0.28995 0.30481,-18.98498 0.3048,-18.98498 -0.0333,19.25076 L 410.5,166.5 l -27.7504,0.0242 -27.75039,0.0242 z m 150.99889,-23.99431 15.4791,-0.31464 0.3069,-18.72472 0.30691,-18.72472 -0.0349,19 -0.0349,19 -15.75107,0.0394 -15.75107,0.0394 z M 317.7185,121.26696 331.937,120.94547 332.26826,109.471 332.59952,97.996535 332.54976,109.74827 332.5,121.5 l -14.5,0.0442 -14.5,0.0442 z" id="path27" fill="#a3e2db"/><path d="M -2,409 V 9 H 398 798 V 409 809 H 398 -2 Z M 452.78498,697.25 453.06997,687 H 465.03498 477 v -8 -8 h 20.5 20.5 v 17 17 h 21 21 V 676.5 648 h 15.5 15.5 v 16 16 h 7.5 7.5 V 668.5 657 H 621.5 637 V 642.5 628 H 649.5 662 V 607 586 H 646 630 V 576 566 H 647.5 665 V 555.5 545 h 19 19 v -22 -22 h -38 -38 v -17 -17 h 17.47886 17.47886 L 662.22886,447.25 662.5,427.5 679.2653,427.22575 696.03059,426.9515 695.7653,398.22575 695.5,369.5 658.25,369.23783 621,368.97566 V 354.98783 341 h 16 16 V 311.5 282 h 19 19 V 262 242 H 667 643 V 233.5 225 H 632 621 V 198 171 H 597 573 V 138 105 H 561 549 V 123.5 142 H 533.5 518 V 159.5 177 H 493 468 V 152.5 128 h -29 -29 v 19 19 H 382.5 355 V 132 98 H 343.5 332 v 11.48283 11.48283 L 306.75,121.23283 281.5,121.5 281.23615,153.75 280.97229,186 H 263.98615 247 V 169.5 153 H 220.5 194 v 30.5 30.5 h -45 -45 v 10.5 10.5 h 40.5 40.5 v 12 12 h -16 -16 v 16 16 H 130.5 108 v 25 25 h 32 32 v 13.96502 13.96501 l -10.25,0.28499 -10.25,0.28498 -0.26534,28.75 -0.26533,28.75 h -22.5031 -22.50309 l 0.26843,23.25 0.26843,23.25 37.75,0.26203 37.75,0.26202 v 11.94753 11.94754 l -8.25,0.29044 -8.25,0.29044 -0.27159,19.25 -0.2716,19.25 H 127.97841 91 v 25 25 h 36.5 36.5 v 16 16 h -9.5 -9.5 v 20 20 h 19 19 v 13.02673 13.02674 L 197.75,684.77673 212.5,684.5 212.77988,671.75 213.05975,659 H 231.02988 249 v 23.5 23.5 h 10.5 10.5 v -18 -18 h 23 23 v -18 -18 h 12 12 V 662.5 691 H 368.5 397 V 675.5 660 h 11 11 v 24.02418 24.02418 L 435.75,707.77418 452.5,707.5 Z" id="path26" fill="#65d0c4"/><path d="M 335.24421,475.77539 335,391.05079 l -15.75,-0.30269 -15.75,-0.30269 15.78138,-0.2227 c 11.87227,-0.16754 15.89951,0.0869 16.25823,1.02729 0.26227,0.6875 0.35804,39.05 0.21283,85.25 l -0.26402,84 z M 415.25,390.26114 437,389.961 V 368.5 347.039 l -21.75,-0.30014 -21.75,-0.30015 22,0.0306 22,0.0306 v 22 22 l -22,0.0306 -22,0.0306 z m 77,-44.009 c 8.1125,-0.16808 21.3875,-0.16808 29.5,0 8.1125,0.16809 1.475,0.30561 -14.75,0.30561 -16.225,0 -22.8625,-0.13752 -14.75,-0.30561 z M 335.37817,335 c 0,-6.325 0.16237,-8.9125 0.36082,-5.75 0.19845,3.1625 0.19845,8.3375 0,11.5 -0.19845,3.1625 -0.36082,0.575 -0.36082,-5.75 z m 69.38349,-74.70726 c 1.24391,-0.23919 3.04391,-0.23011 4,0.0202 0.95609,0.25029 -0.0617,0.446 -2.26166,0.4349 -2.2,-0.0111 -2.98225,-0.21589 -1.73834,-0.45508 z" id="path25" fill="#949494"/><path d="m 237.25,565.28375 c 1.5125,-0.22913 3.9875,-0.22913 5.5,0 1.5125,0.22912 0.275,0.41659 -2.75,0.41659 -3.025,0 -4.2625,-0.18747 -2.75,-0.41659 z m 113,-5.03161 c 8.1125,-0.16808 21.3875,-0.16808 29.5,0 8.1125,0.16809 1.475,0.30561 -14.75,0.30561 -16.225,0 -22.8625,-0.13752 -14.75,-0.30561 z m 142,0 c 8.1125,-0.16808 21.3875,-0.16808 29.5,0 8.1125,0.16809 1.475,0.30561 -14.75,0.30561 -16.225,0 -22.8625,-0.13752 -14.75,-0.30561 z M 213.92431,556.25 211.5,553.5 l 2.75,2.42431 c 1.5125,1.33338 2.75,2.57088 2.75,2.75 0,0.78428 -0.8098,0.14598 -3.07569,-2.42431 z M 264,556.5 c 1.29175,-1.375 2.57363,-2.5 2.84863,-2.5 0.275,0 -0.55688,1.125 -1.84863,2.5 -1.29175,1.375 -2.57363,2.5 -2.84863,2.5 -0.275,0 0.55688,-1.125 1.84863,-2.5 z M 206.15789,537 c 0,-1.375 0.22698,-1.9375 0.50439,-1.25 0.27741,0.6875 0.27741,1.8125 0,2.5 -0.27741,0.6875 -0.50439,0.125 -0.50439,-1.25 z m 0,-8 c 0,-1.375 0.22698,-1.9375 0.50439,-1.25 0.27741,0.6875 0.27741,1.8125 0,2.5 -0.27741,0.6875 -0.50439,0.125 -0.50439,-1.25 z M 213,510.62244 c 0,-0.20765 0.7875,-0.99515 1.75,-1.75 1.58606,-1.24387 1.62143,-1.2085 0.37756,0.37756 C 213.82119,510.91575 213,511.44548 213,510.62244 Z M 263.40499,508.75 261.5,506.5 l 2.25,1.90499 c 2.11444,1.79022 2.70524,2.59501 1.90499,2.59501 -0.18976,0 -1.20226,-1.0125 -2.25,-2.25 z M 303.39739,376 c 0,-7.975 0.1553,-11.2375 0.34512,-7.25 0.18981,3.9875 0.18981,10.5125 0,14.5 -0.18982,3.9875 -0.34512,0.725 -0.34512,-7.25 z M 500.8125,319.31689 c 0.72187,-0.28887 1.58438,-0.25335 1.91667,0.0789 0.33229,0.33229 -0.25834,0.56864 -1.3125,0.52522 -1.16495,-0.048 -1.4019,-0.28494 -0.60417,-0.60416 z m 11,0 c 0.72187,-0.28887 1.58438,-0.25335 1.91667,0.0789 0.33229,0.33229 -0.25834,0.56864 -1.3125,0.52522 -1.16495,-0.048 -1.4019,-0.28494 -0.60417,-0.60416 z M 530.5,312 c 0.99549,-1.1 2.03498,-2 2.30998,-2 0.275,0 -0.31449,0.9 -1.30998,2 -0.99549,1.1 -2.03498,2 -2.30998,2 -0.275,0 0.31449,-0.9 1.30998,-2 z m 7.57895,-17.58333 c 0.048,-1.16495 0.28494,-1.4019 0.60416,-0.60417 0.28887,0.72187 0.25335,1.58438 -0.0789,1.91667 -0.33229,0.33229 -0.56864,-0.25834 -0.52522,-1.3125 z M 475.27236,291 c 0,-2.475 0.19502,-3.4875 0.43337,-2.25 0.23836,1.2375 0.23836,3.2625 0,4.5 -0.23835,1.2375 -0.43337,0.225 -0.43337,-2.25 z m 62.88553,-3 c 0,-1.375 0.22698,-1.9375 0.50439,-1.25 0.27741,0.6875 0.27741,1.8125 0,2.5 -0.27741,0.6875 -0.50439,0.125 -0.50439,-1.25 z M 391.8125,261.31689 c 0.72187,-0.28887 1.58438,-0.25335 1.91667,0.0789 0.33229,0.33229 -0.25834,0.56864 -1.3125,0.52522 -1.16495,-0.048 -1.4019,-0.28494 -0.60417,-0.60416 z m 29,0 c 0.72187,-0.28887 1.58438,-0.25335 1.91667,0.0789 0.33229,0.33229 -0.25834,0.56864 -1.3125,0.52522 -1.16495,-0.048 -1.4019,-0.28494 -0.60417,-0.60416 z" id="path24" fill="#5c5c5c"/><path d="m 225.90912,563.44649 c -5.5314,-1.70394 -13.26344,-8.26053 -15.94875,-13.52417 -4.15156,-8.13773 -4.32958,-25.31713 -0.34433,-33.22988 3.82105,-7.58675 10.7135,-12.56207 20.18318,-14.56923 18.45934,-3.91259 34.07445,2.42571 40.34604,16.37679 3.29087,7.32048 3.26081,21.83741 -0.0606,29.27943 -3.07858,6.89789 -10.59797,13.70159 -17.3633,15.71068 -6.33931,1.88258 -20.6348,1.85932 -26.81222,-0.0436 z M 336,475 v -85 h -16 -16 v -13.77497 -13.77498 l 15.87985,-7.89035 15.87986,-7.89036 0.50322,-17.58467 c 0.57688,-20.15813 2.36135,-28.7712 8.30378,-40.07967 6.74726,-12.84005 19.43116,-21.77845 36.43329,-25.67469 11.54561,-2.64582 42.40647,-2.41989 54.5,0.39899 11.71418,2.73045 20.02483,5.5671 19.90238,6.79322 -0.11691,1.17074 -12.58776,40.81999 -13.00206,41.33818 -0.15862,0.19839 -3.12608,-0.62623 -6.59436,-1.83249 -6.75773,-2.35032 -21.18596,-3.74231 -27.16445,-2.62073 -4.54343,0.85235 -9.11727,4.68289 -11.90261,9.96831 -1.82043,3.45443 -2.23563,6.19484 -2.55657,16.87421 L 393.79915,347 H 415.39958 437 V 368.5 390 H 415.5 394 v 85 85 H 365 336 Z M 478,453.5 V 347 h 29 29 V 453.5 560 h -29 -29 z m 20.11465,-134.62816 c -10.48363,-1.74102 -17.7822,-7.58528 -20.94445,-16.77106 -1.5625,-4.53878 -1.41169,-17.67809 0.25655,-22.35281 2.155,-6.03869 6.15152,-10.39384 12.31494,-13.42 5.26359,-2.58436 6.70336,-2.82675 16.75831,-2.82125 6.43227,0.004 12.5244,0.54381 14.67105,1.30114 10.87847,3.83788 16.92756,12.84045 17.03125,25.34679 0.0766,9.2378 -1.58108,14.7596 -5.9703,19.88742 -4.34182,5.07243 -9.25522,7.59379 -17.36123,8.90909 -7.2567,1.17748 -9.24494,1.16807 -16.75612,-0.0793 z" id="path23" fill="#000000"/></g></g></svg>
